<?xml version="1.0" encoding="utf-8"?>
<!-- Generator: Adobe Illustrator 16.0.0, SVG Export Plug-In . SVG Version: 6.00 Build 0)  -->
<!DOCTYPE svg PUBLIC "-//W3C//DTD SVG 1.1//EN" "http://www.w3.org/Graphics/SVG/1.1/DTD/svg11.dtd">
<svg version="1.1" id="Layer_1" xmlns="http://www.w3.org/2000/svg" xmlns:xlink="http://www.w3.org/1999/xlink" x="0px" y="0px"
	 width="96px" height="96px" viewBox="0 0 96 96" enable-background="new 0 0 96 96" xml:space="preserve">
<g>
	<path fill-rule="evenodd" clip-rule="evenodd" fill="#2C3E50" d="M86,77.311v-1.309h-6.999v8.633C70.636,91.723,59.82,96,47.999,96
		S25.363,91.723,17,84.635v-8.633h-6.999v1.309C3.736,69.201,0,59.041,0,48.001C0,21.492,21.49,0,47.999,0
		C74.511,0,96,21.492,96,48.001C96,59.041,92.264,69.201,86,77.311L86,77.311z"/>
	<path fill="#34495E" d="M47.999,17.001c-0.827,0-1.499-0.672-1.499-1.501V9.5C46.5,8.672,47.172,8,47.999,8
		C48.828,8,49.5,8.672,49.5,9.5V15.5C49.5,16.33,48.828,17.001,47.999,17.001L47.999,17.001z M61.549,13.998l-2.5,4.329
		c-0.414,0.718-1.332,0.964-2.049,0.551c-0.717-0.416-0.963-1.332-0.55-2.051l2.501-4.33c0.415-0.717,1.331-0.963,2.048-0.55
		C61.718,12.363,61.963,13.279,61.549,13.998L61.549,13.998z M68.503,24.049l-2.329,1.501c-0.717,0.413-1.636,0.167-2.049-0.55
		c-0.415-0.717-0.169-1.636,0.548-2.049l2.332-1.501c0.717-0.413,1.633-0.167,2.048,0.55C69.467,22.717,69.22,23.636,68.503,24.049
		L68.503,24.049z M39,18.877c-0.719,0.413-1.635,0.167-2.048-0.551l-2.501-4.329c-0.415-0.719-0.169-1.635,0.55-2.051
		c0.717-0.413,1.633-0.167,2.049,0.55l2.498,4.33C39.964,17.545,39.717,18.461,39,18.877L39,18.877z M31.875,25
		c-0.413,0.717-1.332,0.963-2.049,0.55l-2.329-1.501c-0.719-0.413-0.963-1.332-0.55-2.049c0.415-0.717,1.332-0.963,2.049-0.55
		l2.331,1.501C32.044,23.365,32.291,24.284,31.875,25L31.875,25z"/>
	<polygon fill-rule="evenodd" clip-rule="evenodd" fill="#D9E9F0" points="56.983,24 59.999,29.5 47.999,47.985 36.016,29.5 
		39.015,24 56.983,24 	"/>
	<path fill-rule="evenodd" clip-rule="evenodd" fill="#C6D6E1" d="M57.01,24.035l5.991,7.967H56L57.01,24.035z M32.999,32.001
		l5.991-7.969L40,32.001H32.999L32.999,32.001z"/>
	<path fill-rule="evenodd" clip-rule="evenodd" fill="#ADC1D0" d="M47.985,47.974L38.001,40l-5.002-7.999H40L47.985,47.974
		L47.985,47.974z M63.001,32.001L58,40l-9.986,7.974L56,32.001H63.001L63.001,32.001z"/>
	<polygon fill-rule="evenodd" clip-rule="evenodd" fill="#FFFFFF" points="40,32.001 47.999,24 56,32.001 40,32.001 	"/>
	<path fill-rule="evenodd" clip-rule="evenodd" fill="#EDC133" d="M49.001,52.025C48.667,52.016,48.335,52,47.999,52
		c-16.567,0-30,13.432-30,30c0,1.232,0.084,2.443,0.229,3.637c-3.331-2.639-6.309-5.705-8.838-9.125
		c2.175-15.428,13.379-27.941,28.094-32.054l-4.484-12.456L43.586,44h5.415V52.025L49.001,52.025z"/>
	<path fill-rule="evenodd" clip-rule="evenodd" fill="#D2AA2A" d="M86.59,76.543c-2.522,3.408-5.496,6.463-8.817,9.094
		c0.145-1.193,0.229-2.404,0.229-3.637c0-16.568-13.432-30-30.002-30v-8h4.413l10.589-11.998l-4.482,12.446
		C73.242,48.561,84.424,61.104,86.59,76.543L86.59,76.543z"/>
</g>
</svg>
